# xmcd CD database file
#
# Track frame offsets:
#	150
#	25711
#	72540
#	109665
#	148476
#	189112
#	222663
#	256033
#	286143
#	316274
#
# Disc length: 4570 seconds
#
# Revision: 0
# Processed by: cddbd v1.5.1PL0 Copyright (c) Steve Scherf et al.
# Submitted via: CDex 1.51
#
DISCID=9411d80a
DTITLE=Stefano Bollani - Franco D'Andrea - The Macerata Concert - Lauro Rossi Theatre
DYEAR=2000
DGENRE=Jazz
TTITLE0=Sweet Georgia Brown
TTITLE1=Caravan
TTITLE2=Lover Man
TTITLE3=Epistrophy
TTITLE4=St.Louis Blues
TTITLE5=Stella by Starlight
TTITLE6=St.Thomas
TTITLE7=Naima
TTITLE8=Autumn Leaves
TTITLE9=Take the "A" Train
EXTD=YEAR: 2000
EXTT0=
EXTT1=
EXTT2=
EXTT3=
EXTT4=
EXTT5=
EXTT6=
EXTT7=
EXTT8=
EXTT9=
PLAYORDER=
